<svg width="572" height="180" viewBox="0 0 572 180" fill="none" xmlns="http://www.w3.org/2000/svg">
    <path
        d="M482.051 0C432.5 0 392.424 40.198 392.424 89.901C392.424 139.604 432.5 179.802 482.051 179.802C531.602 179.802 571.678 139.604 571.678 89.901C571.678 40.198 531.602 0 482.051 0Z"
        fill="#43A1C3" />
    <path
        d="M370.708 0H285.03C235.676 0 195.403 40.396 195.403 89.901C195.403 139.406 235.676 179.802 285.03 179.802H370.708C372.88 179.802 374.854 178.02 374.854 175.643V4.15841C374.854 1.78218 373.077 0 370.708 0Z"
        fill="#FFDC55" />
    <path
        d="M175.305 0H89.6267C87.4552 0 85.481 1.78218 85.481 4.15842V85.9406H4.14573C1.97416 85.9406 0 87.7228 0 90.099C0 139.604 40.2728 180 89.6267 180C138.981 180 179.253 139.604 179.253 90.099V4.15842C179.253 1.78218 177.477 0 175.305 0Z"
        fill="#FF6F42" />
    <path
        d="M455.993 60.9898C461.718 60.9898 466.456 65.5443 466.456 71.4849C466.456 77.2274 461.718 81.9799 455.993 81.9799C450.268 81.9799 445.53 77.4254 445.53 71.4849C445.727 65.7423 450.268 60.9898 455.993 60.9898Z"
        fill="#111827" />
    <path
        d="M508.703 121.188H455.993C450.268 121.188 445.53 116.633 445.53 110.693C445.53 104.95 450.268 100.198 455.993 100.198H508.703C514.428 100.198 519.166 104.95 519.166 110.693C519.166 116.633 514.428 121.188 508.703 121.188Z"
        fill="#111827" />
    <path
        d="M508.703 81.7818C502.978 81.7818 498.24 77.2273 498.24 71.2867C498.24 65.5442 502.781 60.7917 508.506 60.7917C514.231 60.7917 518.969 65.3461 518.969 71.2867C519.166 77.2273 514.428 81.7818 508.703 81.7818Z"
        fill="#111827" />
</svg>